PathFileType	4	(X/Y/Z)	C:\Users\Basilio\Documents\Thesis Gigler\squatting_fais\c3dfiles\047\SJ_pre5\markers_experimental.trc
DataRate	CameraRate	NumFrames	NumMarkers	Units	OrigDataRate	OrigDataStartFrame	OrigNumFrames
200.000000	200.000000	4	61	mm	200.000000	1044	1393
Frame#	Time	FHD			LBHD			RBHD			C7			T10			CLAV			LSHO			LUUPA			LMUPA			LDUPA			LLEP			LMEP			LRAD			LUL			LRFIN			RSHO			RUPA1			RMUPA			RDUPA			RLEP			RMEP			RRAD			RUL			RUFIN			LASI			RASI			USACR			LSACR			RSACR			LTHI1			LTHI2			LTHI3			LTHI4			LLFC			LMFC			LTIB1			LTIB2			LTIB3			LTIB4			LLMAL			LMMAL			LMT1			LMT2			LMT5			RTHI			RTHI2			RTHI3			RTHI4			RLFC			RMFC			RTIB1			RTIB2			RTIB3			RTIB4			RLMAL			RMMAL			RHEE			RMT1			RMT2			RMT5			*60			
		X1	Y1	Z1	X2	Y2	Z2	X3	Y3	Z3	X4	Y4	Z4	X5	Y5	Z5	X6	Y6	Z6	X7	Y7	Z7	X8	Y8	Z8	X9	Y9	Z9	X10	Y10	Z10	X11	Y11	Z11	X12	Y12	Z12	X13	Y13	Z13	X14	Y14	Z14	X15	Y15	Z15	X16	Y16	Z16	X17	Y17	Z17	X18	Y18	Z18	X19	Y19	Z19	X20	Y20	Z20	X21	Y21	Z21	X22	Y22	Z22	X23	Y23	Z23	X24	Y24	Z24	X25	Y25	Z25	X26	Y26	Z26	X27	Y27	Z27	X28	Y28	Z28	X29	Y29	Z29	X30	Y30	Z30	X31	Y31	Z31	X32	Y32	Z32	X33	Y33	Z33	X34	Y34	Z34	X35	Y35	Z35	X36	Y36	Z36	X37	Y37	Z37	X38	Y38	Z38	X39	Y39	Z39	X40	Y40	Z40	X41	Y41	Z41	X42	Y42	Z42	X43	Y43	Z43	X44	Y44	Z44	X45	Y45	Z45	X46	Y46	Z46	X47	Y47	Z47	X48	Y48	Z48	X49	Y49	Z49	X50	Y50	Z50	X51	Y51	Z51	X52	Y52	Z52	X53	Y53	Z53	X54	Y54	Z54	X55	Y55	Z55	X56	Y56	Z56	X57	Y57	Z57	X58	Y58	Z58	X59	Y59	Z59	X60	Y60	Z60	X61	Y61	Z61	

1045	5.22	201.7568969726563	1127.775390625	-883.2820434570315	41.54925918579102	1167.640747070313	-963.5167236328127	21.87519264221192	1174.774658203125	-815.618835449219	-73.94780731201173	1062.438110351563	-897.2314453125002	-322.1796875000001	868.8292236328127	-891.6907348632815	6.237863540649416	911.3707275390627	-889.9562988281252	-12.71724700927735	970.7139282226565	-1070.92822265625	-162.3194122314453	986.3516235351565	-1186.953247070313	-159.4167175292969	941.9722900390627	-1212.46728515625	-211.4950866699219	965.0362548828127	-1232.87548828125	-260.5624694824219	918.8770141601565	-1269.980224609375	-317.5766296386719	943.5941162109377	-1193.864379882813	-320.5277709960938	743.7695922851564	-1090.776000976563	-311.3361816406251	692.1468505859376	-1147.974487304688	-278.7179870605469	704.9780273437501	-1052.183349609375	-28.84028434753419	996.0683593750002	-728.1835327148439	-197.6793975830079	1021.738098144531	-620.1997680664064	-201.2953338623047	980.1291503906252	-593.2145996093751	-254.3941497802735	1005.085510253906	-581.1187133789064	-305.7221069335938	961.3531494140627	-545.4241333007814	-359.8119812011719	970.2840576171877	-622.8831787109376	-269.1955871582032	755.7927246093751	-685.6291503906251	-295.4992370605469	716.9600830078126	-625.4246826171876	-265.3274230957032	689.6220092773439	-722.8463134765626	-367.6715087890626	602.6730346679689	-989.6025390625002	-361.2080993652344	611.8251342773439	-769.7325439453127	-445.464324951172	784.6120605468752	-890.289489746094	-473.3401794433595	767.3316040039064	-917.677185058594	-472.8118591308595	767.3741455078126	-860.120788574219	-438.0442199707032	602.6091308593751	-1104.109741210938	-358.3801269531251	595.8799438476564	-1128.982299804688	-328.5020141601563	626.0089111328126	-1104.963623046875	-333.8563842773438	549.3771972656251	-1158.95947265625	-209.5033874511719	446.5156250000001	-1202.181396484375	-145.2528381347657	428.3960266113282	-1093.507690429688	-203.8298034667969	270.3169860839844	-1124.845825195313	-249.7960815429688	238.0810089111329	-1192.086669921875	-224.6687469482422	227.2665557861329	-1154.502685546875	-268.6812438964844	164.0600738525391	-1119.281860351563	-361.5647583007813	96.66873168945315	-1157.29541015625	-321.6787414550782	102.0435638427735	-1073.988037109375	-210.1946563720704	63.22390747070314	-1131.993896484375	-222.7287292480469	61.39395141601564	-1172.492553710938	-274.3049621582032	46.08256530761719	-1209.7392578125	-401.6020812988282	576.6503906250001	-641.1787109375001	-337.6940307617188	576.4250488281251	-623.2016601562501	-317.5192565917969	600.6475830078126	-632.1365966796876	-291.0881042480469	510.5188293457032	-600.2026977539064	-171.0345306396485	436.7115173339845	-588.8003540039064	-118.5684585571289	434.668670654297	-709.5021362304689	-150.9516906738282	312.4942016601563	-609.4224853515626	-249.8243560791016	263.6376647949219	-593.7438964843751	-208.0352783203126	246.9362182617188	-603.0825195312501	-213.8283081054688	202.7098083496094	-642.1028442382814	-334.0917968750001	90.62442779541017	-642.1268920898439	-288.1772155761719	102.16162109375	-723.5026855468751	-388.7734680175782	52.03448867797853	-705.9132080078126	-177.0436706542969	55.62106704711915	-674.3564453125001	-187.0973358154297	56.60083007812501	-630.3106689453126	-244.8314819335938	29.98419761657716	-583.5464477539064	nan	nan	nan	
1046	5.225000000000001	201.6074829101563	1127.81884765625	-883.2174072265627	41.28929138183594	1167.70166015625	-963.3983154296877	21.87246894836426	1174.808959960938	-815.785339355469	-74.27494049072267	1062.5224609375	-897.029479980469	-322.3047180175782	868.7694091796877	-891.6505126953127	6.207551479339601	911.4445800781252	-889.8975219726565	-13.1524019241333	970.8262939453127	-1070.670532226563	-162.74072265625	986.4420166015627	-1186.80810546875	-159.8196258544922	942.127624511719	-1212.350708007813	-211.6726989746094	965.1763916015627	-1232.806030273438	-260.8085021972657	918.9418945312502	-1269.871704101563	-317.8657531738282	943.599060058594	-1193.8037109375	-320.7308349609376	743.7324218750001	-1090.767944335938	-311.4658508300782	692.0837402343751	-1147.985717773438	-278.9141235351563	704.8800048828126	-1052.199340820313	-28.98750686645509	996.3043212890627	-728.3002929687501	-197.8236389160157	1021.670471191406	-620.1962280273439	-201.5408477783204	980.1109619140627	-593.2779541015626	-254.6311035156251	1004.9482421875	-581.0863037109376	-305.9917602539063	961.1853027343752	-545.3469238281251	-360.0634765625001	970.190368652344	-622.7805175781251	-269.2640686035157	755.7455444335939	-685.7389526367189	-295.5620422363282	716.7748413085939	-625.4957275390626	-265.4460754394532	689.5482788085939	-723.0706787109376	-369.0672912597657	601.4523925781251	-988.4881591796877	-363.6271972656251	611.3612060546876	-768.6194458007815	-445.5931091308595	784.5220947265627	-890.2846679687502	-473.5711669921876	767.3522338867189	-917.692810058594	-473.387908935547	767.5728759765626	-860.1140747070315	-438.2233886718751	602.5613403320314	-1104.08837890625	-358.4733276367188	595.8546142578126	-1129.00244140625	-328.6470031738282	626.0386962890626	-1104.994262695313	-333.9103088378907	549.3930053710939	-1158.978149414063	-209.576644897461	446.4873046875001	-1202.174682617188	-145.2599182128907	428.3898010253907	-1093.516967773438	-203.8957519531251	270.4214477539063	-1124.829956054688	-249.8326873779297	238.0959777832032	-1192.092529296875	-224.651596069336	227.2745666503907	-1154.530029296875	-268.7071228027344	164.0655975341797	-1119.232666015625	-361.5763244628907	96.67163848876956	-1157.312744140625	-321.6894531250001	102.0967712402344	-1073.9716796875	-210.2000427246094	63.32349014282228	-1131.993286132813	-222.7250213623047	61.45458221435548	-1172.497314453125	-274.3053894042969	46.09285736083985	-1209.763549804688	-401.7098083496095	576.6262817382814	-641.1585083007814	-337.7758483886719	576.4146728515626	-623.2318115234376	-317.6366577148438	600.5549926757814	-632.1909179687501	-291.3116455078126	510.5623168945314	-600.4318847656251	-171.1281433105469	436.6373291015626	-588.8638916015626	-118.6585311889649	434.7005920410157	-709.4703979492189	-150.9631500244141	312.3648681640626	-609.3358764648439	-249.831527709961	263.6243896484376	-593.6549682617189	-208.0577545166016	246.9228668212891	-603.0974121093751	-213.832504272461	202.6071929931641	-642.0418090820314	-334.1249389648438	90.60119628906251	-642.1275634765626	-288.2611389160157	102.1422653198242	-723.4696044921876	-388.7681274414064	52.06053543090822	-705.9270629882814	-177.1110382080078	55.4269142150879	-674.3005981445314	-187.1128387451172	56.57416152954103	-630.3043823242189	-244.8537292480469	29.98596191406251	-583.5759887695314	nan	nan	nan	
1047	5.23	201.3948516845704	1128.033325195313	-883.1777343750002	41.02458953857423	1167.808349609375	-963.3267211914065	21.70267295837403	1174.906372070313	-815.6970825195315	-74.20370483398439	1062.152587890625	-897.1195068359377	-322.4266052246094	868.6793212890627	-891.6216430664065	6.085776805877687	911.4817504882815	-889.9497070312502	-13.37260150909424	970.9682617187502	-1070.722778320313	-163.1219024658203	986.523620605469	-1186.724853515625	-160.16552734375	942.2500000000002	-1212.309936523438	-211.9442901611329	965.329040527344	-1232.753173828125	-261.0897827148438	919.056091308594	-1269.7763671875	-318.1597290039063	943.5820312500002	-1193.724243164063	-320.8410339355469	743.7982177734376	-1090.809204101563	-311.5958862304688	692.1032714843751	-1147.98583984375	-278.9783325195313	704.9185180664064	-1052.245727539063	-29.04283714294434	996.465759277344	-728.3339843750001	-198.167465209961	1021.635131835938	-620.1562500000001	-201.904281616211	980.132995605469	-594.1055908203126	-254.875228881836	1004.7890625	-581.0167846679689	-306.1155090332032	961.053649902344	-545.3488159179689	-360.2476196289063	970.1228637695315	-622.8139648437501	-269.3136291503907	755.6875000000001	-685.7865600585939	-295.6311950683594	716.6484985351564	-625.5294799804689	-265.5386657714844	689.5545043945314	-723.2221069335939	-368.5862731933594	601.5789184570314	-988.331237792969	-363.3249511718751	611.6276245117189	-768.4605712890627	-445.837860107422	784.4151611328127	-890.291198730469	-473.6076049804689	767.2279052734376	-917.6993408203127	-473.4898071289064	767.4681396484376	-860.1104736328127	-438.2576904296876	602.4645996093751	-1104.180297851563	-358.6159973144532	595.7885131835939	-1129.022705078125	-328.5206604003907	626.0927734375001	-1105.109619140625	-334.0247802734376	549.3784790039064	-1158.981323242188	-209.5880584716797	446.5277099609376	-1202.217895507813	-145.2593994140625	428.4340820312501	-1093.509155273438	-203.9612884521485	270.4091796875001	-1124.818237304688	-249.887924194336	238.0605773925782	-1192.093627929688	-224.6473083496094	227.2826690673829	-1154.525756835938	-268.7224426269532	164.11279296875	-1119.272216796875	-361.0715332031251	96.38005065917972	-1157.37255859375	-321.6692810058594	102.1012344360352	-1073.962646484375	-210.1962585449219	63.27160644531251	-1131.996459960938	-222.4450836181641	61.17691802978517	-1172.495483398438	-274.2774047851563	46.07304763793946	-1209.772583007813	-401.9588012695314	576.6133422851564	-641.0929565429689	-337.9505920410157	576.4130859375001	-623.1146240234376	-317.7087097167969	600.5807495117189	-632.2642822265626	-291.4438781738282	510.4813537597657	-600.3270874023439	-171.1328277587891	436.7211914062501	-588.7769775390626	-118.7337188720703	434.7718505859376	-709.4039916992189	-151.0834197998047	312.3547973632813	-609.2766723632814	-249.9042968750001	263.6108703613282	-593.6394653320314	-208.0885772705079	246.9758605957032	-603.0591430664064	-213.8815460205079	202.6375732421876	-642.0965576171876	-334.0209960937501	90.51342773437501	-642.1596069335939	-288.3527832031251	102.0917053222657	-723.4611816406251	-388.7677612304689	52.0424270629883	-705.9225463867189	-177.0298004150391	55.65246582031251	-674.3402099609376	-187.0557708740235	56.68513870239259	-630.3956298828126	-244.840316772461	30.02539825439454	-583.5811157226564	nan	nan	nan	
1048	5.235	200.9219970703126	1127.955322265625	-882.9625244140627	40.83117294311524	1167.814697265625	-963.2886962890627	21.43644523620606	1174.94091796875	-815.632263183594	-74.56724548339845	1062.276977539063	-896.9345703125002	-322.9632263183594	869.0218505859377	-891.8460693359377	5.99279022216797	911.551696777344	-889.882019042969	-13.60964488983155	971.0515136718752	-1070.610595703125	-163.5847625732422	986.6070556640627	-1186.565185546875	-160.4179840087891	942.4602661132815	-1212.392822265625	-212.5326080322266	965.4951782226565	-1232.59326171875	-261.3381958007813	919.1148681640627	-1269.729125976563	-318.6274719238282	943.6300048828127	-1193.622924804688	-320.9070129394532	743.7786254882814	-1090.772827148438	-311.7367858886719	692.1088256835939	-1148.017211914063	-279.0416564941407	704.8258056640626	-1052.254516601563	-29.32924461364747	996.4954833984377	-728.1898193359376	-198.3986358642579	1021.580322265625	-620.0380249023439	-202.0895080566407	980.0881347656252	-594.2720947265626	-255.2272033691407	1004.579650878906	-580.9467163085939	-306.2300109863282	960.9246215820315	-545.3638305664064	-360.3520202636719	969.9891357421877	-622.8791503906251	-269.3646545410157	755.6210937500001	-685.9106445312501	-295.6532592773438	716.5391845703126	-625.5767211914064	-265.5997924804688	689.4854125976564	-723.2457275390626	-369.0921936035157	601.4028320312501	-988.5584716796877	-363.6624145507813	611.2401123046876	-768.6783447265627	-445.9328002929689	784.2983398437502	-890.2994384765627	-473.7385559082032	767.2012329101564	-917.7297363281252	-473.5972290039064	767.3817138671876	-860.0885009765627	-438.3932495117189	602.4257812500001	-1104.19189453125	-358.6834411621094	595.7601318359376	-1129.053100585938	-328.7034912109376	626.0111083984376	-1105.099365234375	-334.0765686035157	549.3172607421876	-1159.01806640625	-209.5852355957032	446.5443725585939	-1202.22021484375	-145.2654113769532	428.4281005859376	-1093.520751953125	-203.9920043945313	270.4483642578126	-1124.853271484375	-249.8623352050782	238.0449676513672	-1192.1279296875	-224.6529998779297	227.3222656250001	-1154.561401367188	-268.7510986328126	164.126708984375	-1119.248901367188	-361.1213378906251	96.40042877197268	-1157.377319335938	-321.6835937500001	102.1031646728516	-1074.018310546875	-210.2625122070313	63.247615814209	-1132.009765625	-222.7203521728516	61.49728775024415	-1172.523071289063	-274.2854309082032	46.12046051025391	-1209.777099609375	-402.0192260742189	576.6267700195314	-641.1143188476564	-338.1264038085938	576.4123535156251	-623.0656738281251	-317.8000488281251	600.6215209960939	-632.2896118164064	-291.6220397949219	510.5740661621095	-600.4168090820314	-171.1380004882813	436.7641601562501	-588.8303222656251	-118.8386535644532	434.8434143066407	-709.3815917968751	-151.1886901855469	312.3995971679688	-609.1585083007814	-249.9592437744141	263.6169738769532	-593.5941162109376	-208.1383972167969	246.9819335937501	-603.0463867187501	-213.918930053711	202.687240600586	-642.0620117187501	-334.1403503417969	90.54229736328126	-642.1405029296876	-288.2452697753907	102.1524353027344	-723.4885253906251	-388.7529602050782	52.05090713500978	-705.8950805664064	-177.118392944336	55.46852874755861	-674.3209838867189	-187.2123718261719	56.53966522216798	-630.2256469726564	-244.8108978271485	30.00593566894532	-583.5964965820314	nan	nan	nan	
